<?xml version="1.0" standalone="no"?>
<!DOCTYPE svg PUBLIC "-//W3C//DTD SVG 20010904//EN"
 "http://www.w3.org/TR/2001/REC-SVG-20010904/DTD/svg10.dtd">
<svg version="1.0" xmlns="http://www.w3.org/2000/svg"
 width="200.000000pt" height="200.000000pt" viewBox="0 0 200.000000 200.000000"
 preserveAspectRatio="xMidYMid meet">
<metadata>
Created by potrace 1.11, written by Peter Selinger 2001-2013
</metadata>
<g transform="translate(0.000000,200.000000) scale(0.100000,-0.100000)"
fill="#000000" stroke="none">
<path d="M805 1925 c-414 -76 -732 -420 -772 -833 l-5 -53 40 25 40 25 1 -82
c0 -127 16 -214 57 -321 l15 -38 -38 -34 c-21 -18 -32 -33 -25 -34 6 0 12 -6
12 -14 0 -8 6 -21 13 -28 6 -7 29 -39 50 -71 81 -123 245 -261 391 -327 130
-59 206 -74 371 -75 171 0 205 4 310 40 303 102 536 349 617 654 24 93 28 130
28 246 -1 114 -6 152 -38 263 l-18 63 -29 -40 c-33 -44 -45 -51 -45 -23 0 25
-82 184 -121 235 -33 42 -117 128 -177 180 -21 18 -32 36 -32 55 0 15 -9 41
-20 59 -29 48 -150 106 -248 119 -26 3 -51 9 -56 11 -19 12 -255 10 -321 -2z"/>
</g>
</svg>
